<mxfile host="app.diagrams.net" modified="2023-12-13T20:33:59.531Z" agent="Mozilla/5.0 (Windows NT 10.0; Win64; x64) AppleWebKit/537.36 (KHTML, like Gecko) Chrome/118.0.0.0 Safari/537.36" etag="-0dX7nDi_sFJBZlit_ll" version="22.1.8" type="device">
  <diagram name="Страница — 1" id="nvBqsdQDHHNko5LAN7s4">
    <mxGraphModel dx="724" dy="390" grid="1" gridSize="10" guides="1" tooltips="1" connect="1" arrows="1" fold="1" page="1" pageScale="1" pageWidth="827" pageHeight="1169" math="0" shadow="0">
      <root>
        <mxCell id="0" />
        <mxCell id="1" parent="0" />
        <mxCell id="70GhGqxqSoizd85jHll5-30" style="edgeStyle=orthogonalEdgeStyle;rounded=0;orthogonalLoop=1;jettySize=auto;html=1;exitX=0.5;exitY=0;exitDx=0;exitDy=0;entryX=0;entryY=0.5;entryDx=0;entryDy=0;" edge="1" parent="1" source="70GhGqxqSoizd85jHll5-2" target="70GhGqxqSoizd85jHll5-19">
          <mxGeometry relative="1" as="geometry" />
        </mxCell>
        <mxCell id="70GhGqxqSoizd85jHll5-2" value="" style="rounded=1;whiteSpace=wrap;html=1;" vertex="1" parent="1">
          <mxGeometry x="260" y="300" width="120" height="60" as="geometry" />
        </mxCell>
        <mxCell id="70GhGqxqSoizd85jHll5-3" value="&lt;font style=&quot;font-size: 11px;&quot;&gt;Класс&lt;br&gt;Домашние животные&lt;/font&gt;" style="text;html=1;strokeColor=none;fillColor=none;align=center;verticalAlign=middle;whiteSpace=wrap;rounded=0;" vertex="1" parent="1">
          <mxGeometry x="260" y="315" width="120" height="30" as="geometry" />
        </mxCell>
        <mxCell id="70GhGqxqSoizd85jHll5-31" style="edgeStyle=orthogonalEdgeStyle;rounded=0;orthogonalLoop=1;jettySize=auto;html=1;exitX=0.5;exitY=0;exitDx=0;exitDy=0;entryX=1;entryY=0.5;entryDx=0;entryDy=0;" edge="1" parent="1" source="70GhGqxqSoizd85jHll5-4" target="70GhGqxqSoizd85jHll5-19">
          <mxGeometry relative="1" as="geometry" />
        </mxCell>
        <mxCell id="70GhGqxqSoizd85jHll5-4" value="" style="rounded=1;whiteSpace=wrap;html=1;" vertex="1" parent="1">
          <mxGeometry x="540" y="300" width="120" height="60" as="geometry" />
        </mxCell>
        <mxCell id="70GhGqxqSoizd85jHll5-5" value="&lt;font style=&quot;font-size: 11px;&quot;&gt;Класс&lt;br&gt;Вьючные животные&lt;/font&gt;" style="text;html=1;strokeColor=none;fillColor=none;align=center;verticalAlign=middle;whiteSpace=wrap;rounded=0;" vertex="1" parent="1">
          <mxGeometry x="540" y="315" width="120" height="30" as="geometry" />
        </mxCell>
        <mxCell id="70GhGqxqSoizd85jHll5-6" value="" style="rounded=1;whiteSpace=wrap;html=1;" vertex="1" parent="1">
          <mxGeometry x="200" y="410" width="60" height="50" as="geometry" />
        </mxCell>
        <mxCell id="70GhGqxqSoizd85jHll5-37" style="edgeStyle=orthogonalEdgeStyle;rounded=0;orthogonalLoop=1;jettySize=auto;html=1;exitX=0.5;exitY=0;exitDx=0;exitDy=0;entryX=0;entryY=0.5;entryDx=0;entryDy=0;" edge="1" parent="1" source="70GhGqxqSoizd85jHll5-12" target="70GhGqxqSoizd85jHll5-2">
          <mxGeometry relative="1" as="geometry" />
        </mxCell>
        <mxCell id="70GhGqxqSoizd85jHll5-12" value="&lt;font style=&quot;font-size: 10px;&quot;&gt;Класс&lt;br&gt;Кошки&lt;/font&gt;" style="text;html=1;strokeColor=none;fillColor=none;align=center;verticalAlign=middle;whiteSpace=wrap;rounded=0;" vertex="1" parent="1">
          <mxGeometry x="200" y="410" width="60" height="50" as="geometry" />
        </mxCell>
        <mxCell id="70GhGqxqSoizd85jHll5-36" style="edgeStyle=orthogonalEdgeStyle;rounded=0;orthogonalLoop=1;jettySize=auto;html=1;exitX=0.5;exitY=0;exitDx=0;exitDy=0;entryX=0.5;entryY=1;entryDx=0;entryDy=0;" edge="1" parent="1" target="70GhGqxqSoizd85jHll5-2">
          <mxGeometry relative="1" as="geometry">
            <mxPoint x="320" y="410" as="sourcePoint" />
          </mxGeometry>
        </mxCell>
        <mxCell id="70GhGqxqSoizd85jHll5-19" value="" style="rounded=1;whiteSpace=wrap;html=1;" vertex="1" parent="1">
          <mxGeometry x="380" y="180" width="160" height="90" as="geometry" />
        </mxCell>
        <mxCell id="70GhGqxqSoizd85jHll5-20" value="Класс &lt;br&gt;Друзья человека" style="text;html=1;strokeColor=none;fillColor=none;align=center;verticalAlign=middle;whiteSpace=wrap;rounded=0;" vertex="1" parent="1">
          <mxGeometry x="405" y="210" width="110" height="30" as="geometry" />
        </mxCell>
        <mxCell id="70GhGqxqSoizd85jHll5-48" style="edgeStyle=orthogonalEdgeStyle;rounded=0;orthogonalLoop=1;jettySize=auto;html=1;exitX=0.5;exitY=0;exitDx=0;exitDy=0;entryX=1;entryY=0.5;entryDx=0;entryDy=0;" edge="1" parent="1" source="70GhGqxqSoizd85jHll5-40" target="70GhGqxqSoizd85jHll5-4">
          <mxGeometry relative="1" as="geometry" />
        </mxCell>
        <mxCell id="70GhGqxqSoizd85jHll5-40" value="" style="rounded=1;whiteSpace=wrap;html=1;" vertex="1" parent="1">
          <mxGeometry x="660" y="410" width="60" height="50" as="geometry" />
        </mxCell>
        <mxCell id="70GhGqxqSoizd85jHll5-47" style="edgeStyle=orthogonalEdgeStyle;rounded=0;orthogonalLoop=1;jettySize=auto;html=1;exitX=0.5;exitY=0;exitDx=0;exitDy=0;entryX=0.5;entryY=1;entryDx=0;entryDy=0;" edge="1" parent="1" source="70GhGqxqSoizd85jHll5-41" target="70GhGqxqSoizd85jHll5-4">
          <mxGeometry relative="1" as="geometry" />
        </mxCell>
        <mxCell id="70GhGqxqSoizd85jHll5-41" value="" style="rounded=1;whiteSpace=wrap;html=1;" vertex="1" parent="1">
          <mxGeometry x="570" y="410" width="60" height="50" as="geometry" />
        </mxCell>
        <mxCell id="70GhGqxqSoizd85jHll5-46" style="edgeStyle=orthogonalEdgeStyle;rounded=0;orthogonalLoop=1;jettySize=auto;html=1;exitX=0.5;exitY=0;exitDx=0;exitDy=0;entryX=0;entryY=0.5;entryDx=0;entryDy=0;" edge="1" parent="1" source="70GhGqxqSoizd85jHll5-42" target="70GhGqxqSoizd85jHll5-4">
          <mxGeometry relative="1" as="geometry" />
        </mxCell>
        <mxCell id="70GhGqxqSoizd85jHll5-42" value="" style="rounded=1;whiteSpace=wrap;html=1;" vertex="1" parent="1">
          <mxGeometry x="480" y="410" width="60" height="50" as="geometry" />
        </mxCell>
        <mxCell id="70GhGqxqSoizd85jHll5-43" value="" style="rounded=1;whiteSpace=wrap;html=1;" vertex="1" parent="1">
          <mxGeometry x="290" y="410" width="60" height="50" as="geometry" />
        </mxCell>
        <mxCell id="70GhGqxqSoizd85jHll5-45" style="edgeStyle=orthogonalEdgeStyle;rounded=0;orthogonalLoop=1;jettySize=auto;html=1;exitX=0.5;exitY=0;exitDx=0;exitDy=0;entryX=1;entryY=0.5;entryDx=0;entryDy=0;" edge="1" parent="1" source="70GhGqxqSoizd85jHll5-44" target="70GhGqxqSoizd85jHll5-2">
          <mxGeometry relative="1" as="geometry" />
        </mxCell>
        <mxCell id="70GhGqxqSoizd85jHll5-44" value="" style="rounded=1;whiteSpace=wrap;html=1;" vertex="1" parent="1">
          <mxGeometry x="380" y="410" width="60" height="50" as="geometry" />
        </mxCell>
        <mxCell id="70GhGqxqSoizd85jHll5-50" value="&lt;font style=&quot;font-size: 10px;&quot;&gt;Класс&lt;br&gt;Собаки&lt;/font&gt;" style="text;html=1;strokeColor=none;fillColor=none;align=center;verticalAlign=middle;whiteSpace=wrap;rounded=0;" vertex="1" parent="1">
          <mxGeometry x="290" y="410" width="60" height="50" as="geometry" />
        </mxCell>
        <mxCell id="70GhGqxqSoizd85jHll5-51" value="&lt;font style=&quot;font-size: 10px;&quot;&gt;Класс&lt;br&gt;Хомяки&lt;/font&gt;" style="text;html=1;strokeColor=none;fillColor=none;align=center;verticalAlign=middle;whiteSpace=wrap;rounded=0;" vertex="1" parent="1">
          <mxGeometry x="380" y="410" width="60" height="50" as="geometry" />
        </mxCell>
        <mxCell id="70GhGqxqSoizd85jHll5-52" value="&lt;font style=&quot;font-size: 10px;&quot;&gt;Класс&lt;br&gt;Лошади&lt;/font&gt;" style="text;html=1;strokeColor=none;fillColor=none;align=center;verticalAlign=middle;whiteSpace=wrap;rounded=0;" vertex="1" parent="1">
          <mxGeometry x="480" y="410" width="60" height="50" as="geometry" />
        </mxCell>
        <mxCell id="70GhGqxqSoizd85jHll5-53" value="&lt;font style=&quot;font-size: 10px;&quot;&gt;Класс&lt;br&gt;Верблюды&amp;nbsp;&lt;/font&gt;" style="text;html=1;strokeColor=none;fillColor=none;align=center;verticalAlign=middle;whiteSpace=wrap;rounded=0;" vertex="1" parent="1">
          <mxGeometry x="570" y="410" width="60" height="50" as="geometry" />
        </mxCell>
        <mxCell id="70GhGqxqSoizd85jHll5-54" value="&lt;font style=&quot;font-size: 10px;&quot;&gt;Класс&lt;br&gt;Ослы&lt;/font&gt;" style="text;html=1;strokeColor=none;fillColor=none;align=center;verticalAlign=middle;whiteSpace=wrap;rounded=0;" vertex="1" parent="1">
          <mxGeometry x="660" y="410" width="60" height="50" as="geometry" />
        </mxCell>
      </root>
    </mxGraphModel>
  </diagram>
</mxfile>
